<?xml version="1.0" encoding="UTF-8" standalone="no"?>
<!-- Created with Inkscape (http://www.inkscape.org/) -->

<svg
   xmlns:osb="http://www.openswatchbook.org/uri/2009/osb"
   xmlns:dc="http://purl.org/dc/elements/1.1/"
   xmlns:cc="http://creativecommons.org/ns#"
   xmlns:rdf="http://www.w3.org/1999/02/22-rdf-syntax-ns#"
   xmlns:svg="http://www.w3.org/2000/svg"
   xmlns="http://www.w3.org/2000/svg"
   xmlns:xlink="http://www.w3.org/1999/xlink"
   xmlns:sodipodi="http://sodipodi.sourceforge.net/DTD/sodipodi-0.dtd"
   xmlns:inkscape="http://www.inkscape.org/namespaces/inkscape"
   version="1.1"
   width="210mm"
   height="297mm"
   id="svg2"
   inkscape:version="0.48.4 r9939"
   sodipodi:docname="pyrate_del_sys_icon.svg">
  <sodipodi:namedview
     pagecolor="#ffffff"
     bordercolor="#666666"
     borderopacity="1"
     objecttolerance="10"
     gridtolerance="10"
     guidetolerance="10"
     inkscape:pageopacity="0"
     inkscape:pageshadow="2"
     inkscape:window-width="1920"
     inkscape:window-height="1031"
     id="namedview8"
     showgrid="false"
     inkscape:zoom="0.22425739"
     inkscape:cx="-642.41207"
     inkscape:cy="526.18108"
     inkscape:window-x="1920"
     inkscape:window-y="0"
     inkscape:window-maximized="1"
     inkscape:current-layer="svg2" />
  <defs
     id="defs4">
    <linearGradient
       inkscape:collect="always"
       id="linearGradient3758"
       osb:paint="gradient">
      <stop
         style="stop-color:#000000;stop-opacity:1;"
         offset="0"
         id="stop3760" />
      <stop
         style="stop-color:#000000;stop-opacity:0;"
         offset="1"
         id="stop3762" />
    </linearGradient>
    <linearGradient
       inkscape:collect="always"
       xlink:href="#linearGradient3758"
       id="linearGradient3800"
       x1="43.718899"
       y1="494.81924"
       x2="647.73908"
       y2="494.81924"
       gradientUnits="userSpaceOnUse" />
  </defs>
  <metadata
     id="metadata7">
    <rdf:RDF>
      <cc:Work
         rdf:about="">
        <dc:format>image/svg+xml</dc:format>
        <dc:type
           rdf:resource="http://purl.org/dc/dcmitype/StillImage" />
        <dc:title></dc:title>
      </cc:Work>
    </rdf:RDF>
  </metadata>
  <path
     style="fill:url(#linearGradient3800);stroke:#000000;stroke-width:1px;stroke-linecap:butt;stroke-linejoin:miter;stroke-opacity:1;fill-opacity:1;opacity:0.44508671"
     d="m 624.28265,334.43713 c 0,-13.37748 0,-26.75497 0,-40.13245 0,-2.97278 0.94007,-6.0981 0,-8.91833 -0.66473,-1.99419 -3.51909,-2.57901 -4.45916,-4.45916 -1.40134,-2.80268 1.40134,-15.03396 0,-17.83664 -2.19397,-4.38795 -15.64268,-13.44871 -17.83665,-17.83665 -0.66473,-1.32947 0,-2.97278 0,-4.45916 -2.97277,-2.97278 -5.94555,-5.94555 -8.91832,-8.91833 -2.97278,-2.97277 -5.94555,-5.94555 -8.91833,-8.91832 -1.48638,-1.48639 -3.51908,-2.57901 -4.45916,-4.45916 -0.66473,-1.32947 0.66474,-3.1297 0,-4.45916 -2.55603,-5.11207 -9.30409,-6.20274 -13.37748,-8.91833 -4.05924,-2.70616 -9.42516,-11.40132 -13.37749,-13.37748 -1.32946,-0.66474 -2.97277,0 -4.45916,0 -1.48639,-1.48639 -2.57901,-3.51909 -4.45916,-4.45916 -1.32947,-0.66474 -3.1297,0.66473 -4.45916,0 -1.88015,-0.94008 -2.46497,-3.79443 -4.45917,-4.45917 -2.82022,-0.94007 -5.94554,0 -8.91832,0 -1.48639,0 -3.27005,0.89184 -4.45916,0 -5.04497,-3.78372 -8.33252,-9.59376 -13.37749,-13.37748 -1.61006,-1.20755 -11.1974,1.09004 -13.37748,0 -1.88015,-0.94008 -2.57902,-3.51909 -4.45916,-4.45916 -2.80269,-1.40134 -15.03397,1.40134 -17.83665,0 -1.88015,-0.94008 -2.57901,-3.51909 -4.45916,-4.45917 -1.32947,-0.66473 -2.97278,0 -4.45916,0 -1.48639,0 -2.97278,0 -4.45917,0 -8.91832,0 -17.83664,0 -26.75497,0 -2.97277,0 -6.0343,0.72101 -8.91832,0 -4.56003,-1.14 -8.81746,-3.31915 -13.37749,-4.45916 -1.442,-0.3605 -3.12969,0.66474 -4.45916,0 -4.79345,-2.39672 -8.29326,-7.22358 -13.37748,-8.91832 -11.14791,-3.71597 -12.38656,2.47731 -22.29581,0 -3.22443,-0.80611 -5.76522,-3.40813 -8.91832,-4.45916 -1.41012,-0.47004 -2.97278,0 -4.45917,0 -2.97277,0 -5.94555,0 -8.91832,0 -3.10153,0 -20.68323,0.80629 -22.29581,0 -1.88015,-0.94008 -2.57901,-3.51909 -4.45916,-4.45916 -1.32947,-0.66474 -2.97278,0 -4.45916,0 -4.45916,0 -8.91833,0 -13.37749,0 -14.86387,0 -29.72774,0 -44.59162,0 -16.35026,0 -32.70052,0 -49.05078,0 -3.71956,0 -21.34523,-0.63372 -22.2958,0 -3.49806,2.33203 -5.42027,6.58628 -8.91833,8.91832 -6.21566,4.14377 -22.72049,11.67876 -31.21413,13.37748 -2.91505,0.58301 -5.94555,0 -8.91832,0 -1.48639,0 -3.79443,-1.32946 -4.45917,0 -1.32946,2.65893 2.10207,6.81626 0,8.91833 -4.92919,4.9292 -11.79461,4.45916 -17.83664,4.45916 -1.48639,0 -3.40813,-1.05103 -4.45917,0 -2.10206,2.10207 2.10207,6.81625 0,8.91832 -1.05103,1.05104 -2.97277,0 -4.45916,0 -2.97277,2.97278 -7.038173,5.15803 -8.918321,8.91833 -0.664732,1.32946 4.459161,-1.48639 4.459161,0 0,2.10207 -3.519087,2.57901 -4.459161,4.45916 -1.329465,2.65893 0.940074,6.0981 0,8.91832 -1.051034,3.15311 -3.408127,5.76522 -4.459161,8.91833 -0.470037,1.41011 0.664732,3.12969 0,4.45916 -0.940074,1.88015 -3.519088,2.57901 -4.459162,4.45916 -0.664733,1.32946 0,2.97277 0,4.45916 0,2.97278 0,5.94555 0,8.91832 0,8.91833 0,17.83665 0,26.75498 0,2.00821 0.678537,12.02041 0,13.37748 -0.940074,1.88015 -3.519088,2.57902 -4.459162,4.45916 -1.406574,2.81315 1.406574,19.48266 0,22.29581 -2.675497,5.351 -10.701988,8.02649 -13.377485,13.37749 -1.329466,2.65893 1.329465,6.25939 0,8.91832 -0.940074,1.88015 -3.519088,2.57901 -4.459162,4.45916 -0.664733,1.32947 0,2.97278 0,4.45916 0,2.97278 0.940074,6.09811 0,8.91833 -0.664733,1.9942 -3.519088,2.57901 -4.459162,4.45916 -0.664733,1.32946 0.824499,3.22241 0,4.45916 -2.972774,2.97278 -5.945549,5.94555 -8.918324,8.91833 0,1.48638 0.664733,3.12969 0,4.45916 -0.940073,1.88014 -3.519087,2.57901 -4.459161,4.45916 -1.401341,2.80268 1.401341,15.03396 0,17.83665 -0.940074,1.88014 -3.519088,2.57901 -4.459162,4.45916 -0.586249,1.1725 0,15.50486 0,17.83664 0,11.8911 0,23.7822 0,35.6733 0,7.43194 0,14.86387 0,22.29581 0,2.93015 -0.838618,10.86163 0,13.37748 10.766522,32.29957 -1.285593,-7.03034 8.918323,13.37749 1.329466,2.65893 -1.329465,6.25939 0,8.91832 0.940074,1.88015 3.519088,2.57902 4.459162,4.45916 0.664733,1.32947 0,2.97278 0,4.45917 0,2.97277 -0.940074,6.0981 0,8.91832 0.664733,1.9942 3.519088,2.57901 4.459162,4.45916 1.329465,2.65893 -1.329465,6.25939 0,8.91832 0.940074,1.88015 3.519088,2.57902 4.459162,4.45917 0.664732,1.32946 -0.664733,3.12969 0,4.45916 0.426787,0.85357 16.983072,17.40986 17.836647,17.83665 1.329465,0.66473 3.222413,-0.8245 4.459162,0 25.854654,17.23643 3.302024,2.14488 8.918323,13.37748 4.929731,9.85945 2.767551,1.38377 8.918321,4.45916 1.88015,0.94008 2.57902,3.51909 4.45916,4.45916 1.32947,0.66474 3.1297,-0.66473 4.45917,0 5.35099,2.6755 8.02649,10.70199 13.37748,13.37749 1.32947,0.66473 3.04905,-0.47004 4.45916,0 32.29957,10.76652 -7.03034,-1.28559 13.37749,8.91832 1.32946,0.66474 3.1297,-0.66473 4.45916,0 3.7603,1.88015 5.15803,7.03818 8.91832,8.91833 1.32947,0.66473 3.1297,-0.66474 4.45917,0 1.88014,0.94007 2.57901,3.51909 4.45916,4.45916 1.32946,0.66473 3.12969,-0.66473 4.45916,0 1.88015,0.94007 2.57901,3.51909 4.45916,4.45916 3.56733,1.78367 9.81016,-1.78366 13.37749,0 1.88014,0.94007 2.57901,3.51909 4.45916,4.45916 2.65893,1.32947 6.25939,-1.32946 8.91832,0 0.85358,0.42679 17.40986,16.98307 17.83665,17.83665 0.66473,1.32946 0,2.97277 0,4.45916 0,6.63709 -0.66473,5.69165 4.45916,13.37749 2.33204,3.49805 7.03818,5.15803 8.91832,8.91832 0.66474,1.32947 0,2.97277 0,4.45916 0,1.48639 1.48639,4.45916 0,4.45916 -1.48638,0 0,-5.94555 0,-4.45916 0,2.97278 0,5.94555 0,8.91833 0,1.48638 0.66474,3.12969 0,4.45916 -0.94007,1.88015 -3.51908,2.57901 -4.45916,4.45916 -0.66473,1.32946 0.66474,3.1297 0,4.45916 -0.94007,1.88015 -2.97277,2.97278 -4.45916,4.45916 -1.48639,1.48639 -2.97277,2.97278 -4.45916,4.45916 -2.62263,2.62263 -16.80418,15.77171 -17.83665,17.83665 -1.32946,2.65893 1.32947,6.2594 0,8.91833 -0.94007,1.88014 -3.51909,2.57901 -4.45916,4.45916 -0.66473,1.32946 0.47004,3.04905 0,4.45916 -1.05103,3.1531 -3.40813,5.76522 -4.45916,8.91832 -0.94008,2.82022 1.649,6.44483 0,8.91833 -2.97278,2.97277 -5.94555,5.94555 -8.91832,8.91832 0,1.48639 0.66473,3.1297 0,4.45916 -0.94008,1.88015 -3.51909,2.57902 -4.45917,4.45916 -1.40134,2.80269 1.40134,15.03397 0,17.83665 -0.94007,1.88015 -3.51908,2.57901 -4.45916,4.45916 -0.66473,1.32947 0,2.97278 0,4.45916 0,2.97278 0.94008,6.09811 0,8.91833 -0.66473,1.9942 -3.51909,2.57901 -4.45916,4.45916 -0.3045,0.609 -0.3045,26.14597 0,26.75497 0.94007,1.88015 2.35709,4.45916 4.45916,4.45916 1.48639,0 0,-2.97277 0,-4.45916 0,-1.48639 0,-2.97277 0,-4.45916 0,-14.1311 -1.10406,-13.67496 8.91833,-31.21413 2.08583,-3.65022 5.94554,-5.94555 8.91832,-8.91833 5.94555,-5.94555 11.8911,-11.8911 17.83665,-17.83664 1.48638,-1.48639 3.51908,-2.57902 4.45916,-4.45917 3.07539,-6.15077 -5.40029,-3.98859 4.45916,-8.91832 2.65893,-1.32947 6.81625,2.10207 8.91832,0 1.05104,-1.05103 -1.05103,-3.40813 0,-4.45916 1.05104,-1.05104 3.40813,1.05103 4.45916,0 1.05104,-1.05104 0,-5.94555 0,-4.45916 0,11.89109 0,23.78219 0,35.67329 0,2.33179 -0.58624,16.66415 0,17.83665 0.94008,1.88015 3.51909,2.57901 4.45917,4.45916 1.78366,3.56733 -1.78367,9.81016 0,13.37748 0.94007,1.88015 3.51908,2.57902 4.45916,4.45917 0.66473,1.32946 -1.05104,3.40812 0,4.45916 1.05103,1.05103 2.97277,0 4.45916,0 1.48639,0 2.97277,0 4.45916,0 1.48639,0 3.22241,0.8245 4.45916,0 3.49806,-2.33204 5.94555,-5.94555 8.91833,-8.91833 4.45916,-4.45916 9.34035,-8.53292 13.37748,-13.37748 12.91384,-15.4966 7.59193,-15.18385 17.83665,-35.67329 2.39673,-4.79346 6.16101,-8.78198 8.91832,-13.37749 1.71001,-2.85002 2.46497,-6.25939 4.45917,-8.91832 2.52248,-3.36331 6.39584,-5.55502 8.91832,-8.91833 3.25871,-4.34495 3.46276,-10.6497 8.91832,-13.37748 1.32947,-0.66474 3.04905,0.47003 4.45916,0 3.15311,-1.05104 5.76522,-3.40813 8.91833,-4.45916 1.41011,-0.47004 2.97277,0 4.45916,0 4.61308,0 6.16323,-1.05104 8.91832,4.45916 0.67854,1.35707 0,11.36927 0,13.37748 0,8.91833 0,17.83665 0,26.75497 0,4.45917 -1.0815,9.05147 0,13.37749 1.01966,4.07861 7.03818,5.15803 8.91833,8.91832 0.66473,1.32947 0,2.97278 0,4.45916 0,2.97278 0,5.94555 0,8.91833 0,1.48638 0,2.97277 0,4.45916 0,1.48639 -1.05104,3.40813 0,4.45916 1.05103,1.05104 3.40812,-1.05103 4.45916,0 2.10207,2.10207 -1.32947,6.25939 0,8.91832 2.7551,5.5102 4.30524,4.45917 8.91832,4.45917 1.48639,0 3.1297,0.66473 4.45916,0 5.03598,-2.51799 16.69311,-20.00872 17.83665,-22.29581 0.66473,-1.32947 -0.89183,-3.27005 0,-4.45916 3.78373,-5.04497 10.13297,-7.96996 13.37749,-13.37749 1.52948,-2.54913 -0.94008,-6.0981 0,-8.91832 0.66473,-1.9942 3.51908,-2.57902 4.45916,-4.45916 1.48639,-4.45917 2.97277,-8.91833 4.45916,-13.37749 0,-1.48639 -0.47004,-3.04905 0,-4.45916 10.76652,-32.29957 -1.28559,7.03035 8.91832,-13.37749 1.33247,-2.66493 -2.93542,-8.91832 4.45917,-8.91832 2.97277,0 -1.32947,6.25939 0,8.91832 0.94007,1.88015 3.51908,2.57902 4.45916,4.45916 0.66473,1.32947 -1.05104,3.40813 0,4.45917 1.05103,1.05103 2.97277,0 4.45916,0 2.97277,2.97277 6.58629,5.42027 8.91832,8.91832 1.649,2.4735 -2.10207,6.81625 0,8.91832 1.05104,1.05104 3.40813,-1.05103 4.45916,0 1.05104,1.05104 -1.05103,3.40813 0,4.45917 1.05104,1.05103 2.97278,0 4.45917,0 0,2.97277 -0.94008,6.0981 0,8.91832 5.51019,16.53059 4.45916,-5.4355 4.45916,8.91832 0,1.48639 1.48639,4.45916 0,4.45916 -1.48639,0 0,-2.97277 0,-4.45916 0,-2.97277 0,-5.94555 0,-8.91832 0,-2.84995 -0.64315,-25.46868 0,-26.75497 1.88015,-3.7603 6.58629,-5.42027 8.91832,-8.91833 1.649,-2.47349 -1.32946,-6.25939 0,-8.91832 0.94008,-1.88015 3.51909,-2.57901 4.45916,-4.45916 2.29551,-4.59102 -3.97672,-12.21272 4.45917,-17.83665 2.47349,-1.649 8.91832,-2.97277 8.91832,0 0,2.97278 -11.02039,-2.10207 -8.91832,0 3.32366,3.32366 9.17334,2.35709 13.37748,4.45916 1.88015,0.94008 2.97278,2.97278 4.45916,4.45917 1.48639,1.48638 3.51909,2.57901 4.45916,4.45916 1.32947,2.65893 -1.32946,6.25939 0,8.91832 2.19398,4.38794 15.64268,13.4487 17.83665,17.83665 0.88401,1.76802 -0.91161,12.46587 0,13.37748 5.94555,5.94555 4.45916,-7.43193 4.45916,4.45917 0,20.93394 0,15.81724 0,31.21413 0,1.48638 -1.48638,-4.45916 0,-4.45916 1.48639,0 0,5.94554 0,4.45916 0,-32.70052 0,-65.40104 0,-98.10156 0,-8.91833 0,-17.83665 0,-26.75497 0,-2.00822 0.67854,-12.02041 0,-13.37749 -1.88014,-3.76029 -7.03817,-5.15803 -8.91832,-8.91832 -0.66473,-1.32947 0.66473,-3.1297 0,-4.45916 -1.42018,-2.84036 -18.79195,-18.79195 -22.29581,-22.29581 -1.48639,-1.48639 -3.51909,-2.57902 -4.45916,-4.45916 -0.66473,-1.32947 0,-2.97278 0,-4.45917 0,-1.48638 0,-2.97277 0,-4.45916 0,-1.48638 1.05103,-3.40812 0,-4.45916 -1.05104,-1.05103 -3.40813,1.05104 -4.45916,0 -1.05104,-1.05103 0,-2.97277 0,-4.45916 0,-1.48639 0,-5.94555 0,-4.45916 0,2.97277 0,11.8911 0,8.91832 0,-4.45916 -1.08151,-9.05146 0,-13.37748 2.11274,-8.45096 4.75945,-2.37973 8.91832,-4.45917 1.88015,-0.94007 2.97278,-2.97277 4.45916,-4.45916 11.8911,-11.8911 23.7822,-23.78219 35.6733,-35.67329 4.8535,-4.85351 12.85085,-14.51279 17.83664,-17.83665 2.4735,-1.649 6.2594,1.32947 8.91833,0 5.35099,-2.6755 8.02649,-10.70199 13.37748,-13.37749 2.65893,-1.32946 6.2594,1.32947 8.91833,0 2.84036,-1.42018 18.79194,-18.79194 22.29581,-22.2958 3.50386,-3.50387 20.87562,-19.45545 22.2958,-22.29581 1.78367,-3.56733 -1.78366,-9.81016 0,-13.37749 0.94008,-1.88015 3.51909,-2.57901 4.45917,-4.45916 1.78366,-3.56733 -1.78367,-9.81016 0,-13.37749 0.94007,-1.88014 3.51908,-2.57901 4.45916,-4.45916 0.66473,-1.32946 0,-2.97277 0,-4.45916 0,-1.48639 0,-2.97277 0,-4.45916 0,-4.59387 -0.65808,-29.89799 0,-31.21413 0.94007,-1.88015 3.51909,-2.57902 4.45916,-4.45917 0.58625,-1.17249 0,-15.50486 0,-17.83664 0,-1.48639 -1.48639,-4.45916 0,-4.45916 1.48639,0 0,5.94554 0,4.45916 0,-1.05963 0.49972,-16.83722 0,-17.83665 -0.94007,-1.88015 -2.97277,-2.97277 -4.45916,-4.45916 -1.48639,-1.48639 -2.97278,-2.97278 -4.45916,-4.45916 -1.48639,-1.48639 -2.97278,-2.97278 -4.45917,-4.45916 -1.48638,-1.48639 -5.94554,-2.97278 -4.45916,-4.45917 2.26978,-2.26978 12.57692,20.69468 0,-4.45916 -1.48639,-5.94555 -2.97277,-11.8911 -4.45916,-17.83665 z"
     id="path3772"
     inkscape:connector-curvature="0" />
  <path
     sodipodi:type="arc"
     style="opacity:0.44508673;fill:#464646;fill-opacity:1;fill-rule:nonzero;stroke:#000000;stroke-opacity:1"
     id="path3804"
     sodipodi:cx="263.09055"
     sodipodi:cy="405.78372"
     sodipodi:rx="62.428265"
     sodipodi:ry="111.47904"
     d="m 325.51881,405.78372 a 62.428265,111.47904 0 1 1 -124.85653,0 62.428265,111.47904 0 1 1 124.85653,0 z" />
  <path
     sodipodi:type="arc"
     style="opacity:0.44508673;fill:#464646;fill-opacity:1;fill-rule:nonzero;stroke:#000000;stroke-opacity:1"
     id="path3806"
     sodipodi:cx="454.8345"
     sodipodi:cy="405.78372"
     sodipodi:rx="57.969105"
     sodipodi:ry="107.01988"
     d="m 512.80361,405.78372 a 57.969105,107.01988 0 1 1 -115.93821,0 57.969105,107.01988 0 1 1 115.93821,0 z" />
  <path
     sodipodi:type="arc"
     style="opacity:0.44508673;fill:#464646;fill-opacity:1;fill-rule:nonzero;stroke:#000000;stroke-opacity:1"
     id="path3808"
     sodipodi:cx="385.7175"
     sodipodi:cy="581.92059"
     sodipodi:rx="15.607066"
     sodipodi:ry="28.984552"
     d="m 401.32456,581.92059 a 15.607066,28.984552 0 1 1 -31.21413,0 15.607066,28.984552 0 1 1 31.21413,0 z" />
  <text
     xml:space="preserve"
     style="font-size:140px;font-style:normal;font-variant:normal;font-weight:normal;font-stretch:normal;text-align:start;line-height:127.99999714%;letter-spacing:0px;word-spacing:0px;writing-mode:lr-tb;text-anchor:start;fill:#000000;fill-opacity:1;stroke:none;font-family:Sans;-inkscape-font-specification:Sans"
     x="222.95808"
     y="196.20312"
     id="text3836"
     sodipodi:linespacing="128%"><tspan
       sodipodi:role="line"
       id="tspan3838"
       x="222.95808"
       y="196.20312">SYS</tspan></text>
</svg>
