<?xml version="1.0" encoding="UTF-8"?>
<svg xmlns="http://www.w3.org/2000/svg" xmlns:xlink="http://www.w3.org/1999/xlink" width="361pt" height="38pt" viewBox="0 0 361 38" version="1.1">
<defs>
<clipPath id="clip1">
  <path d="M 0 0 L 359 0 L 359 36 L 0 36 Z "/>
</clipPath>
</defs>
<g id="surface7">
<path style="fill-rule:nonzero;fill:rgb(99.998474%,99.998474%,99.998474%);fill-opacity:1;stroke-width:0.03;stroke-linecap:butt;stroke-linejoin:miter;stroke:rgb(99.998474%,99.998474%,99.998474%);stroke-opacity:1;stroke-miterlimit:10;" d="M 74 50 L 434 50 L 434 13 L 74 13 Z " transform="matrix(1,0,0,1,-74,-13)"/>
<g clip-path="url(#clip1)" clip-rule="nonzero">
<path style="fill:none;stroke-width:2;stroke-linecap:square;stroke-linejoin:miter;stroke:rgb(99.998474%,0%,0%);stroke-opacity:1;stroke-miterlimit:3.25;" d="M 74.058594 48.898438 L 74.109375 48.894531 L 74.21875 48.886719 L 74.441406 48.867188 L 74.878906 48.832031 L 75.761719 48.75 L 77.523438 48.574219 L 77.742188 48.550781 L 77.964844 48.527344 L 78.402344 48.476563 L 79.285156 48.375 L 81.046875 48.15625 L 81.167969 48.140625 L 81.285156 48.125 L 81.523438 48.09375 L 82 48.027344 L 82.957031 47.890625 L 84.867188 47.601563 L 84.984375 47.582031 L 85.105469 47.5625 L 85.820313 47.445313 L 86.777344 47.285156 L 88.6875 46.941406 L 88.796875 46.917969 L 88.910156 46.898438 L 89.132813 46.855469 L 89.578125 46.773438 L 90.46875 46.597656 L 92.253906 46.234375 L 95.820313 45.441406 L 95.929688 45.417969 L 96.039063 45.390625 L 96.695313 45.238281 L 97.566406 45.027344 L 99.316406 44.59375 L 102.8125 43.671875 L 110.398438 41.480469 L 117.476563 39.238281 L 125.152344 36.675781 L 132.683594 34.101563 L 139.710938 31.710938 L 147.328125 29.183594 L 154.441406 26.933594 L 161.414063 24.863281 L 168.980469 22.796875 L 176.039063 21.054688 L 183.691406 19.375 L 191.203125 17.945313 L 198.207031 16.796875 L 198.328125 16.78125 L 198.445313 16.761719 L 199.160156 16.65625 L 200.109375 16.515625 L 202.007813 16.25 L 205.808594 15.75 L 205.917969 15.738281 L 206.027344 15.722656 L 206.695313 15.640625 L 207.582031 15.535156 L 209.355469 15.328125 L 212.898438 14.945313 L 213.140625 14.921875 L 213.378906 14.898438 L 213.859375 14.847656 L 214.820313 14.753906 L 216.742188 14.574219 L 216.863281 14.566406 L 216.980469 14.554688 L 217.222656 14.53125 L 217.703125 14.492188 L 218.664063 14.40625 L 220.585938 14.25 L 220.703125 14.238281 L 220.820313 14.230469 L 221.054688 14.210938 L 222.472656 14.105469 L 224.355469 13.96875 L 224.476563 13.960938 L 224.828125 13.9375 L 225.300781 13.90625 L 226.242188 13.84375 L 228.128906 13.726563 L 228.238281 13.722656 L 228.351563 13.714844 L 228.570313 13.703125 L 229.007813 13.675781 L 229.890625 13.628906 L 231.648438 13.535156 L 231.757813 13.53125 L 231.871094 13.523438 L 232.089844 13.515625 L 232.527344 13.492188 L 233.410156 13.453125 L 235.167969 13.375 L 235.289063 13.371094 L 235.40625 13.363281 L 235.644531 13.355469 L 236.121094 13.335938 L 237.078125 13.300781 L 237.195313 13.296875 L 237.316406 13.289063 L 238.984375 13.234375 L 239.105469 13.230469 L 239.222656 13.226563 L 239.9375 13.203125 L 240.890625 13.175781 L 242.800781 13.125 L 242.910156 13.125 L 243.023438 13.121094 L 243.246094 13.117188 L 243.691406 13.105469 L 244.582031 13.085938 L 244.691406 13.085938 L 244.804688 13.082031 L 246.363281 13.054688 L 246.472656 13.054688 L 246.585938 13.050781 L 246.808594 13.050781 L 247.253906 13.042969 L 247.363281 13.042969 L 247.476563 13.039063 L 247.699219 13.035156 L 248.144531 13.03125 L 248.253906 13.03125 L 248.367188 13.027344 L 248.589844 13.027344 L 249.035156 13.023438 L 249.144531 13.019531 L 249.480469 13.019531 L 249.925781 13.015625 L 250.035156 13.011719 L 250.472656 13.011719 L 250.582031 13.007813 L 251.015625 13.007813 L 251.234375 13.003906 L 252.109375 13.003906 L 252.21875 13 L 254.726563 13 L 254.835938 13.003906 L 255.710938 13.003906 L 255.820313 13.007813 L 256.472656 13.007813 L 256.910156 13.011719 L 257.03125 13.011719 L 257.148438 13.015625 L 257.386719 13.015625 L 257.859375 13.019531 L 257.976563 13.023438 L 258.09375 13.023438 L 258.332031 13.027344 L 258.804688 13.03125 L 258.925781 13.03125 L 259.042969 13.035156 L 259.28125 13.035156 L 260.699219 13.058594 L 260.820313 13.058594 L 260.9375 13.0625 L 261.175781 13.066406 L 262.59375 13.089844 L 262.714844 13.09375 L 262.832031 13.097656 L 263.070313 13.101563 L 263.542969 13.109375 L 264.488281 13.132813 L 264.601563 13.136719 L 264.710938 13.140625 L 264.929688 13.144531 L 265.375 13.15625 L 266.257813 13.179688 L 266.476563 13.1875 L 266.699219 13.191406 L 267.140625 13.207031 L 268.023438 13.234375 L 268.136719 13.238281 L 268.246094 13.242188 L 268.46875 13.25 L 268.910156 13.261719 L 269.792969 13.296875 L 271.5625 13.363281 L 271.679688 13.367188 L 271.800781 13.375 L 272.039063 13.382813 L 272.519531 13.402344 L 273.476563 13.445313 L 275.394531 13.539063 L 275.511719 13.542969 L 275.632813 13.550781 L 275.871094 13.5625 L 276.351563 13.585938 L 277.308594 13.640625 L 279.226563 13.75 L 279.34375 13.757813 L 279.460938 13.761719 L 279.695313 13.777344 L 280.167969 13.808594 L 281.105469 13.867188 L 282.988281 13.992188 L 283.105469 14 L 283.222656 14.011719 L 283.457031 14.027344 L 283.929688 14.0625 L 284.871094 14.128906 L 286.75 14.277344 L 286.96875 14.292969 L 287.1875 14.3125 L 287.628906 14.347656 L 288.503906 14.421875 L 290.261719 14.578125 L 293.769531 14.914063 L 293.886719 14.925781 L 294.007813 14.9375 L 294.246094 14.960938 L 294.71875 15.011719 L 295.671875 15.109375 L 297.574219 15.320313 L 301.378906 15.773438 L 301.492188 15.789063 L 301.601563 15.800781 L 301.824219 15.828125 L 302.269531 15.886719 L 303.15625 16.003906 L 304.933594 16.242188 L 308.484375 16.75 L 315.449219 17.882813 L 323.007813 19.316406 L 330.058594 20.84375 L 337.703125 22.714844 L 344.839844 24.652344 L 351.839844 26.714844 L 359.429688 29.105469 L 366.515625 31.449219 L 374.191406 34.058594 L 381.730469 36.636719 L 388.761719 38.988281 L 396.382813 41.414063 L 403.503906 43.484375 L 403.609375 43.515625 L 403.71875 43.546875 L 404.375 43.722656 L 405.246094 43.957031 L 406.992188 44.414063 L 410.480469 45.277344 L 410.714844 45.332031 L 410.953125 45.390625 L 411.425781 45.5 L 412.371094 45.714844 L 414.265625 46.132813 L 414.5 46.179688 L 414.738281 46.230469 L 416.15625 46.523438 L 418.050781 46.890625 L 418.160156 46.910156 L 418.269531 46.933594 L 418.492188 46.972656 L 418.933594 47.054688 L 419.816406 47.210938 L 421.582031 47.511719 L 421.691406 47.53125 L 421.804688 47.546875 L 422.023438 47.582031 L 422.464844 47.652344 L 423.347656 47.789063 L 425.113281 48.042969 L 425.238281 48.058594 L 425.359375 48.078125 L 425.605469 48.109375 L 426.101563 48.175781 L 427.085938 48.300781 L 427.207031 48.316406 L 427.332031 48.332031 L 427.578125 48.359375 L 428.070313 48.417969 L 429.058594 48.53125 L 429.179688 48.542969 L 429.304688 48.554688 L 429.550781 48.582031 L 430.042969 48.632813 L 431.027344 48.730469 L 431.152344 48.742188 L 431.273438 48.753906 L 431.519531 48.777344 L 432.015625 48.820313 L 432.136719 48.832031 L 432.261719 48.84375 L 432.507813 48.863281 L 432.628906 48.875 L 432.753906 48.882813 L 432.875 48.894531 L 432.941406 48.898438 " transform="matrix(1,0,0,1,-74,-13)"/>
<path style=" stroke:none;fill-rule:evenodd;fill:rgb(0%,0%,99.998474%);fill-opacity:0.5;" d="M 898 1131 C 898 831.117188 822.355469 543.515625 687.703125 331.46875 C 553.050781 119.417969 370.425781 0.292969 180 0.292969 C -10.425781 0.292969 -193.050781 119.417969 -327.703125 331.46875 C -462.355469 543.515625 -538 831.117188 -538 1131 C -538 1430.882813 -462.355469 1718.484375 -327.703125 1930.53125 C -193.050781 2142.582031 -10.425781 2261.707031 180 2261.707031 C 370.425781 2261.707031 553.050781 2142.582031 687.703125 1930.53125 C 822.355469 1718.484375 898 1430.882813 898 1131 Z "/>
</g>
</g>
</svg>
